<?xml version="1.0" encoding="UTF-8"?>
<svg id="_Слой_2" data-name="Слой 2" xmlns="http://www.w3.org/2000/svg" viewBox="0 0 149.98 65.94">
  <defs>
    <style>
      .cls-1 {
        fill: #fff;
      }
    </style>
  </defs>
  <g id="_Слой_1-2" data-name="Слой 1">
    <g id="Grupo_62" data-name="Grupo 62">
      <path id="Trazado_76" data-name="Trazado 76" class="cls-1" d="m13.31,13.31s-8.66.21-9.51,11.41c-.85,11.2-2.11,29.59-2.54,33.6-.28,2.56-.71,5.1-1.27,7.61,4.52.16,8.72-2.31,10.78-6.34,1.69-3.17,2.74-11.83,2.74-11.83l-.21-34.44Z"/>
    </g>
    <g id="Grupo_63" data-name="Grupo 63">
      <path id="Trazado_77" data-name="Trazado 77" class="cls-1" d="m15.94,10.42c-.2,2.21,3.71,1.96,8.99,1.63,3.09-.2,4.44,1.06,4.44,2.54s-.63,4.01-5.07,6.34-9.55,5.93-9.55,8.46,4.54,2.81,8.28,2.95c3.64.13,5.5-.21,6.34,3.17s-5.91,8.24-8.24,10.78-6.06,5.08-5.71,8.88c.28,2.95,17.54-2.11,21.55-7.61s4.23-8.67,1.9-19.02-3.17-13.1-2.53-18.39c.43-3.42,1.07-6.8,1.9-10.14,0,0-21.94,6.29-22.3,10.42"/>
    </g>
    <g id="Grupo_64" data-name="Grupo 64">
      <path id="Trazado_78" data-name="Trazado 78" class="cls-1" d="m145.89,52.93c0,1.01-.91,1.76-2.19,1.76-.98,0-1.49-.43-1.49-1.18,0-.66.53-1.05,1.93-1.4,1.06-.28,1.58-.55,1.73-.93h.03v1.74Zm-5.28.68c0,1.54,1.14,2.54,2.89,2.54.95.05,1.87-.36,2.47-1.1h.03v.85h1.49v-6.04c0-1.86-1.26-3-3.3-3-.87-.02-1.73.25-2.42.78-.65.51-1.08,1.24-1.2,2.06l1.58.33c.12-1.03,1.01-1.79,2.04-1.75,1,0,1.61.46,1.61,1.18,0,.65-.5.96-2.09,1.36-2.24.53-3.1,1.31-3.1,2.79m-8.67,2.29h1.63v-5.43c-.07-1.09.76-2.04,1.85-2.11.08,0,.16,0,.24,0,1.05-.07,1.95.73,2.02,1.78,0,.11,0,.22,0,.33v5.43h1.63v-5.68c.13-1.73-1.16-3.23-2.88-3.36-.15-.01-.29-.01-.44,0-.92,0-1.8.37-2.44,1.03h-.03v-.78h-1.56v8.8Zm-2.99-4.4c0,1.92-.98,3.14-2.57,3.14s-2.57-1.21-2.57-3.14.98-3.14,2.57-3.14,2.57,1.21,2.57,3.14m-6.77,0c0,2.77,1.69,4.65,4.2,4.65s4.2-1.88,4.2-4.65-1.69-4.65-4.2-4.65-4.2,1.88-4.2,4.65m-2.97,4.4h1.63v-12.12h-1.63v12.12Zm-7.75-5.16c0-1.33,1.08-2.41,2.41-2.44,1.29-.02,2.35,1.01,2.38,2.3,0,.05,0,.09,0,.14h-4.78Zm-1.68.76c0,2.77,1.66,4.65,4.1,4.65,1.58.07,3.04-.8,3.75-2.21l-1.26-.85c-.43.99-1.42,1.63-2.51,1.61-.67.02-1.31-.26-1.74-.76-.46-.55-.71-1.24-.7-1.96h6.42v-.68c0-2.64-1.59-4.45-3.98-4.45s-4.08,1.91-4.08,4.65m-8.95,0c0,2.76,1.69,4.65,4.13,4.65.93.03,1.85-.28,2.57-.86.72-.59,1.18-1.43,1.29-2.36l-1.56-.31c-.1,1.18-1.12,2.08-2.31,2.03-1.53,0-2.51-1.21-2.51-3.14s.98-3.14,2.51-3.14c1.19-.05,2.2.84,2.31,2.03l1.56-.32c-.11-.92-.58-1.76-1.29-2.34-.72-.59-1.64-.9-2.57-.88-2.44,0-4.13,1.89-4.13,4.65m-4.48,4.4h1.63v-5.11c0-1.53.51-2.22,1.53-2.22.31,0,.62.06.91.15l.32-1.63c-.32-.08-.65-.13-.98-.13-.72-.04-1.42.29-1.84.88h-.03v-.73h-1.53v8.8Zm-3.22-2.97c0,1.01-.91,1.76-2.19,1.76-.98,0-1.49-.43-1.49-1.18,0-.66.53-1.05,1.93-1.39,1.06-.28,1.58-.55,1.73-.93h.03v1.74Zm-5.28.68c0,1.54,1.15,2.54,2.89,2.54.95.05,1.87-.36,2.47-1.1h.03v.85h1.49v-6.05c0-1.86-1.26-3-3.3-3-.87-.02-1.73.25-2.42.78-.65.51-1.07,1.24-1.19,2.06l1.58.33c.12-1.03,1.01-1.79,2.04-1.74,1,0,1.61.46,1.61,1.18,0,.65-.5.96-2.09,1.36-2.24.53-3.1,1.31-3.1,2.79m-7.83.71v-3.77h2.62c1.71,0,2.44.56,2.44,1.84,0,1.35-.75,1.93-2.47,1.93h-2.59Zm0-5.21v-3.26h2.66c1.31,0,1.98.55,1.98,1.61s-.66,1.64-1.98,1.64h-2.66Zm-1.71,6.79h4.3c2.74,0,4.18-1.18,4.18-3.48.07-1.19-.63-2.29-1.73-2.74v-.03c.84-.46,1.35-1.36,1.3-2.32-.03-1.71-1.44-3.08-3.15-3.05-.08,0-.17,0-.25.01h-4.66v11.62Zm-12.17-5.16c0-1.33,1.08-2.41,2.41-2.44,1.29-.02,2.35,1.01,2.38,2.3,0,.05,0,.09,0,.14h-4.78Zm-1.68.76c0,2.77,1.66,4.65,4.1,4.65,1.58.07,3.04-.8,3.75-2.21l-1.26-.85c-.43.99-1.42,1.63-2.51,1.61-.67.02-1.3-.26-1.74-.76-.46-.55-.71-1.24-.7-1.96h6.42v-.68c0-2.64-1.59-4.45-3.98-4.45s-4.08,1.91-4.08,4.65m-2.99.76c.02,1.29-1.02,2.36-2.31,2.37,0,0,0,0-.01,0-1.53,0-2.51-1.21-2.51-3.14s.95-3.14,2.46-3.14c1.3,0,2.37,1.04,2.37,2.35,0,0,0,0,0,.01v1.54Zm-6.46-.76c0,2.72,1.66,4.65,3.93,4.65.98.04,1.93-.37,2.59-1.1h.03v.85h1.53v-12.11h-1.63v4.12h-.03c-.64-.68-1.54-1.06-2.47-1.05-2.29,0-3.95,1.93-3.95,4.65"/>
    </g>
    <g id="Grupo_65" data-name="Grupo 65">
      <path id="Trazado_79" data-name="Trazado 79" class="cls-1" d="m131.2,29.26h1.41l-1.31-2.04h-1.89l1.79,2.04Zm2.22,7.07c0,1.01-.91,1.76-2.19,1.76-.98,0-1.49-.43-1.49-1.18,0-.66.53-1.05,1.93-1.39,1.06-.28,1.58-.55,1.73-.93h.03v1.74Zm-5.28.69c0,1.54,1.14,2.54,2.89,2.54.95.05,1.87-.36,2.47-1.1h.03v.85h1.49v-6.04c0-1.86-1.26-3-3.3-3-.87-.02-1.73.25-2.42.78-.65.51-1.08,1.25-1.2,2.06l1.58.33c.12-1.03,1.01-1.8,2.05-1.75,1,0,1.61.46,1.61,1.18,0,.65-.5.96-2.09,1.36-2.24.53-3.1,1.31-3.1,2.79m-.38-5.04v-1.46h-2.16v-2.06h-1.63v2.06h-1.38v1.46h1.38v5.05c0,1.68.65,2.29,2.42,2.29h.95v-1.55h-.8c-.71,0-.95-.2-.95-.78v-5.01h2.16Zm-7.8-2.99h1.78v-1.71h-1.78v1.71Zm.08,10.32h1.63v-8.8h-1.63v8.8Zm-3.3,0h1.63v-12.12h-1.63v12.12Zm-2.99-4.4c0,1.92-.98,3.14-2.57,3.14s-2.57-1.21-2.57-3.14.98-3.14,2.57-3.14,2.57,1.21,2.57,3.14m-6.77,0c0,2.77,1.69,4.65,4.2,4.65s4.2-1.88,4.2-4.65-1.69-4.65-4.2-4.65-4.2,1.88-4.2,4.65m-2.66,0c0,1.93-.98,3.14-2.51,3.14-1.29,0-2.34-1.06-2.33-2.35,0,0,0-.01,0-.02v-1.54c0-1.3,1.06-2.36,2.36-2.36,0,0,0,0,.01,0,1.51,0,2.46,1.21,2.46,3.14m-6.46,8.13h1.63v-4.53h.03c.65.68,1.55,1.06,2.49,1.05,2.27,0,3.93-1.93,3.93-4.65s-1.66-4.65-3.95-4.65c-.95-.02-1.86.37-2.51,1.06h-.03v-.81h-1.59v12.53Zm-2.99-8.13c0,1.93-.98,3.14-2.57,3.14s-2.57-1.21-2.57-3.14.98-3.14,2.57-3.14,2.57,1.21,2.57,3.14m-6.77,0c0,2.77,1.69,4.65,4.2,4.65s4.2-1.88,4.2-4.65-1.69-4.65-4.2-4.65-4.2,1.88-4.2,4.65m-4.48,4.4h1.63v-5.11c0-1.53.51-2.22,1.53-2.22.31,0,.62.06.91.15l.31-1.63c-.32-.08-.65-.13-.98-.13-.72-.04-1.42.29-1.84.88h-.03v-.73h-1.53v8.8Zm-1.13-7.34v-1.46h-2.16v-2.06h-1.63v2.06h-1.38v1.46h1.38v5.05c0,1.68.65,2.29,2.42,2.29h.95v-1.55h-.8c-.72,0-.95-.2-.95-.78v-5.01h2.16Zm-12,2.17c.01-1.33,1.08-2.41,2.41-2.44,1.29-.02,2.35,1.01,2.37,2.3,0,.05,0,.09,0,.14h-4.78Zm-1.68.76c0,2.77,1.66,4.65,4.1,4.65,1.58.07,3.04-.8,3.75-2.21l-1.26-.85c-.43.99-1.42,1.63-2.51,1.61-.67.02-1.31-.26-1.74-.76-.46-.55-.71-1.24-.7-1.96h6.42v-.68c0-2.64-1.59-4.45-3.98-4.45s-4.08,1.91-4.08,4.65m-13.13,4.4h1.69v-8.72h.03l3.63,8.72h.71l3.65-8.72h.03v8.72h1.69v-11.62h-2.11l-3.6,8.78h-.03l-3.6-8.78h-2.11v11.62Z"/>
    </g>
    <g id="Grupo_66" data-name="Grupo 66">
      <path id="Trazado_80" data-name="Trazado 80" class="cls-1" d="m141.97,18.3c0,2.76,1.69,4.65,4.13,4.65.93.03,1.85-.28,2.57-.86.72-.59,1.18-1.43,1.3-2.36l-1.56-.32c-.1,1.18-1.12,2.08-2.31,2.03-1.53,0-2.51-1.21-2.51-3.14s.98-3.14,2.51-3.14c1.19-.05,2.2.85,2.3,2.03l1.56-.32c-.12-.92-.58-1.76-1.3-2.34-.72-.59-1.64-.9-2.57-.88-2.44,0-4.13,1.89-4.13,4.65m-3.05-5.93h1.78v-1.71h-1.78v1.71Zm.08,10.32h1.63v-8.8h-1.63v8.8Zm-3.24-3.63c.02,1.29-1.02,2.36-2.31,2.37,0,0-.01,0-.02,0-1.52,0-2.5-1.21-2.5-3.14s.98-3.12,2.45-3.12c1.3,0,2.37,1.05,2.37,2.35,0,0,0,.02,0,.02v1.51Zm-5.83,5.31c.65,1.45,2.11,2.36,3.7,2.31,1.97.11,3.65-1.4,3.76-3.36,0-.14,0-.28,0-.43v-9h-1.59v.85h-.03c-.64-.7-1.56-1.09-2.51-1.07-2.29,0-3.95,1.92-3.95,4.63s1.63,4.65,3.93,4.65c.97.06,1.91-.35,2.52-1.1h.04v.96c.16,1.15-.65,2.22-1.8,2.38-.12.02-.24.02-.36.02-1.05.05-2-.61-2.32-1.61l-1.38.78Zm-6.17-11.72h1.41l-1.31-2.04h-1.89l1.79,2.04Zm-1.88,4.88c0-1.33,1.08-2.42,2.41-2.44,1.29-.02,2.36,1.01,2.38,2.3,0,.05,0,.09,0,.14h-4.78Zm-1.68.76c0,2.77,1.66,4.65,4.1,4.65,1.58.07,3.04-.8,3.75-2.21l-1.26-.85c-.43.99-1.42,1.63-2.51,1.61-.67.02-1.31-.26-1.74-.76-.46-.55-.71-1.24-.7-1.96h6.43v-.68c0-2.64-1.59-4.45-3.98-4.45s-4.08,1.91-4.08,4.65m-.35-2.94v-1.46h-2.16v-2.06h-1.63v2.06h-1.38v1.46h1.38v5.05c0,1.68.65,2.29,2.42,2.29h.95v-1.54h-.8c-.71,0-.95-.2-.95-.78v-5.01h2.16Zm-7.47,4.37c0,1.01-.91,1.76-2.19,1.76-.98,0-1.5-.43-1.5-1.18,0-.66.53-1.05,1.93-1.39,1.06-.28,1.58-.55,1.73-.93h.03v1.74Zm-5.28.68c0,1.54,1.15,2.54,2.89,2.54.95.05,1.87-.36,2.47-1.1h.03v.85h1.49v-6.04c0-1.86-1.26-3-3.3-3-.87-.02-1.73.25-2.42.78-.65.51-1.07,1.24-1.2,2.05l1.58.33c.12-1.03,1.01-1.79,2.04-1.74,1,0,1.61.47,1.61,1.18,0,.65-.5.96-2.09,1.36-2.24.53-3.1,1.31-3.1,2.79m-4.45,2.29h1.63v-5.12c0-1.53.51-2.22,1.53-2.22.31,0,.62.06.91.15l.32-1.63c-.32-.08-.65-.13-.98-.13-.72-.04-1.42.29-1.84.88h-.03v-.73h-1.53v8.8Zm-1.13-7.34v-1.46h-2.16v-2.06h-1.63v2.06h-1.38v1.46h1.38v5.05c0,1.68.65,2.29,2.42,2.29h.95v-1.54h-.8c-.71,0-.95-.2-.95-.78v-5.01h2.16Zm-12.68,4.38c.25,2.06,1.69,3.2,3.97,3.2,2.01,0,3.34-1.01,3.34-2.59s-1.01-2.26-3.32-2.94c-1.48-.42-1.97-.7-1.97-1.25,0-.65.63-1.08,1.58-1.08.96-.05,1.8.62,1.97,1.56l1.53-.4c-.37-1.61-1.85-2.71-3.5-2.61-1.81,0-3.15,1.1-3.15,2.56,0,1.35.9,1.99,3.02,2.59,1.68.52,2.26.85,2.26,1.63,0,.66-.66,1.08-1.74,1.08-1.19.15-2.28-.7-2.42-1.89,0-.07-.01-.13-.02-.2l-1.53.34Zm-7.7,2.95h7.12v-1.59h-5.41v-3.62h4.95v-1.53h-4.95v-3.29h5.41v-1.59h-7.12v11.62Zm-7.64-2.97c0,1.01-.91,1.76-2.19,1.76-.98,0-1.49-.43-1.49-1.18,0-.66.53-1.05,1.92-1.39,1.06-.28,1.58-.55,1.73-.93h.03v1.74Zm-5.28.68c0,1.54,1.15,2.54,2.89,2.54.95.05,1.87-.36,2.47-1.1h.03v.85h1.49v-6.04c0-1.86-1.26-3-3.3-3-.87-.02-1.73.25-2.42.78-.65.51-1.08,1.24-1.2,2.05l1.58.33c.12-1.03,1.01-1.79,2.04-1.74,1,0,1.61.47,1.61,1.18,0,.65-.5.96-2.09,1.36-2.24.53-3.1,1.31-3.1,2.79m-3,2.29h1.63v-12.12h-1.63v12.12Zm-7.84-5.93v-4.1h2.81c1.53,0,2.27.66,2.27,2.06s-.76,2.04-2.29,2.04h-2.79Zm-1.71,5.93h1.71v-4.33h2.86c2.47,0,3.93-1.36,3.93-3.64s-1.46-3.65-3.92-3.65h-4.58v11.62Z"/>
    </g>
  </g>
</svg>