<?xml version="1.0" encoding="UTF-8"?>
<svg id="_Слой_2" data-name="Слой 2" xmlns="http://www.w3.org/2000/svg" viewBox="0 0 167.82 57.81">
  <defs>
    <style>
      .cls-1 {
        fill: #fff;
      }
    </style>
  </defs>
  <g id="_Слой_1-2" data-name="Слой 1">
    <g id="Grupo_67" data-name="Grupo 67">
      <path id="Trazado_81" data-name="Trazado 81" class="cls-1" d="m138.92,0H28.91C12.95.02.02,12.95,0,28.91c.02,15.96,12.95,28.89,28.91,28.91h110.01c15.96,0,28.91-12.94,28.91-28.91S154.88,0,138.92,0M.84,28.91C.86,13.41,13.41.85,28.91.84c15.5.02,28.05,12.57,28.07,28.07-.02,15.5-12.57,28.05-28.07,28.07-15.5-.02-28.05-12.57-28.07-28.07m138.08,28.07H35.8c12.91-3.19,21.99-14.77,22.01-28.07-.02-13.3-9.1-24.88-22.01-28.07h103.12c15.5,0,28.07,12.57,28.07,28.07s-12.57,28.07-28.07,28.07M72.41,22.78l-.54-1.61h-3.34l-.54,1.61h-1.54l2.95-8.4h1.67l2.95,8.4h-1.6Zm-2.21-6.52l-1.19,3.54h2.39l-1.2-3.54Zm4.42,9.1c-.17,0-.35,0-.52-.02-.23-.03-.45-.07-.67-.13v-1.26c.24.04.48.06.72.07.34.05.66-.19.71-.53,0-.04,0-.09,0-.13v-6.73h1.49v7.01c.08.87-.57,1.64-1.44,1.72-.1,0-.19,0-.29,0m.18-11.13h1.59v1.53h-1.59v-1.53Zm0,1.53l7.02,7.03-.11-.81c-.36.63-1.04,1-1.76.96-1.12.06-2.08-.8-2.14-1.93,0-.09,0-.18,0-.27v-4.11h1.48v3.77c0,.72.28,1.17,1.07,1.17.28,0,.56-.1.76-.31.33-.38.49-.88.45-1.39v-3.25h1.48v6.16l-8.25-7.04Zm6.55,0v3.26c0-.72-.24-1.16-1.02-1.16-.48.01-.91.32-1.06.78-.17.53-.24,1.09-.2,1.65v2.51h5.54v-6.16h1.24l.11.79c.39-.62,1.08-.98,1.81-.95,1.11-.04,2.05.82,2.09,1.94,0,.09,0,.18,0,.26v4.11l-8.5-7.03Zm5.15.08c-.93.1-1.76-.57-1.86-1.5-.01-.13-.01-.27,0-.4v3.91h-1.12v-1.22h1.12v-1.56l1.48-.37v1.93h1.55v1.22h-1.55v3c0,.47.21.67.69.67.32,0,.64-.02.96-.06v1.24c-.41.11-.84.16-1.27.17m6.86.01c-.53.04-.99-.34-1.04-.86-.42.61-1.13.96-1.87.92-1.09.13-2.08-.64-2.21-1.73,0-.07-.01-.13-.01-.2.03-1.1.94-1.96,2.03-1.93.02,0,.03,0,.05,0l1.81-.13v-.38c0-.58-.2-.97-1.04-.97-.69,0-1.09.31-1.12.88h5.59c.08-1.39,1.18-2,2.56-2,.96-.13,1.9.38,2.31,1.25.14.4.2.82.18,1.24v2.28c0,.28.09.39.34.39.06,0,.13,0,.19-.02v1.09c-.23.12-.48.18-.73.17m-1.24-2.83l-1.56.12c-.46-.01-.86.34-.89.81.02.45.4.79.85.77.01,0,.02,0,.03,0,.76.1,1.46-.43,1.56-1.19,0-.07.01-.14.01-.22v-.28Zm10.23,2.74v-3.82c0-.76-.2-1.2-.95-1.2-.84,0-1.21.89-1.21,1.66v3.36h-1.47v-3.82c0-.76-.2-1.2-.95-1.2-.84,0-1.22.89-1.22,1.66v3.36h-1.47v-6.15h1.23l.12.82c.36-.62,1.03-.99,1.75-.97.74-.05,1.43.34,1.77,1.01.39-.65,1.1-1.04,1.86-1.01,1.06-.05,1.96.76,2.01,1.82,0,.11,0,.23-.01.34v4.16h-1.47Zm8.12-2.62h-4.12c-.02.45.14.88.45,1.21.24.24.57.38.91.38.33.03.66-.08.9-.3.14-.14.25-.32.3-.52h1.42c-.07.42-.25.81-.52,1.14-.53.58-1.29.9-2.07.86-.72.02-1.42-.25-1.95-.75-.64-.66-.98-1.55-.95-2.46-.04-.91.28-1.79.89-2.46.52-.52,1.23-.8,1.97-.78.9-.03,1.75.4,2.25,1.14.41.64.59,1.39.53,2.14,0,0-.01.28-.01.42m-1.85-2.16c-.25-.25-.59-.37-.94-.36-.4-.01-.78.16-1.03.48-.21.27-.33.61-.32.96h2.66c.01-.39-.12-.78-.38-1.08m6.72,4.77v-3.78c0-.72-.24-1.16-1.02-1.16-.48.01-.91.32-1.07.78-.17.53-.24,1.09-.2,1.65v2.51h-1.48v-6.16h1.24l.11.79c.39-.62,1.08-.98,1.81-.95,1.11-.04,2.05.82,2.09,1.94,0,.09,0,.18,0,.26v4.11h-1.48Zm5.15.08c-.93.1-1.76-.57-1.86-1.5-.01-.13-.01-.27,0-.4v-3.13h-1.13v-1.22h1.13v-1.56l1.48-.37v1.93h1.55v1.22h-1.55v3c0,.47.21.67.69.67.32,0,.64-.02.96-.06v1.24c-.41.11-.84.16-1.27.17m8.4-.08l-.1-.67c-.4.55-1.05.85-1.73.82-.55,0-1.08-.18-1.5-.52-.76-.68-1.16-1.67-1.09-2.69-.08-1.04.33-2.05,1.1-2.75.43-.34.96-.51,1.5-.5.6-.05,1.18.16,1.61.58v-2.81h1.48v8.55h-1.27Zm-1.53-5.07c-.39,0-.76.17-.99.49-.29.44-.42.97-.39,1.49-.03.53.11,1.05.39,1.5.23.31.6.49.99.49,1.16,0,1.4-1.1,1.4-1.99s-.24-1.98-1.4-1.98m9.32,2.45h-4.12c-.02.45.14.88.45,1.21.24.24.57.38.91.38.33.03.66-.08.9-.3.15-.14.25-.32.3-.52h1.42c-.07.42-.25.81-.52,1.14-.53.58-1.29.9-2.07.86-.72.02-1.42-.25-1.94-.76-.64-.66-.98-1.55-.95-2.46-.04-.91.28-1.79.89-2.46.52-.52,1.23-.8,1.97-.78.9-.03,1.75.4,2.25,1.14.41.64.6,1.39.53,2.14,0,0-.01.28-.01.42m-1.85-2.15c-.25-.25-.59-.37-.93-.36-.4-.01-.78.16-1.03.48-.21.27-.33.61-.32.96h2.67c.01-.39-.12-.78-.38-1.08m-67.19,20.9c-.94.62-2.07.91-3.2.81h-4.77v-12.02h4.77c.97-.05,1.93.18,2.78.66.87.58,1.39,1.56,1.39,2.61.04,1.06-.53,2.05-1.47,2.54,1.06.48,1.74,1.54,1.73,2.71.05,1.04-.4,2.04-1.22,2.69m-3.11-9.32h-2.69v3.01h2.74c.98,0,1.81-.35,1.81-1.49s-.88-1.52-1.86-1.52m.07,4.84h-2.76v3.33h2.69c1.01,0,2.11-.37,2.11-1.59,0-1.29-.9-1.74-2.05-1.74m12.84,5.41c-.75.06-1.41-.49-1.49-1.24-.61.87-1.62,1.37-2.67,1.32-2.1,0-3.18-1.32-3.18-2.76,0-1.67,1.3-2.64,2.98-2.76l2.59-.19v-.54c0-.83-.29-1.39-1.49-1.39-.98,0-1.56.44-1.61,1.25h-2.05c.12-1.98,1.69-2.86,3.65-2.86,1.5,0,2.79.47,3.3,1.79.19.57.28,1.17.25,1.78v3.27c0,.41.14.56.49.56.09,0,.18-.01.27-.03v1.56c-.32.17-.68.25-1.05.24m-1.78-4.04l-2.23.17c-.66-.02-1.22.49-1.27,1.15.03.64.57,1.13,1.21,1.1.01,0,.03,0,.04,0,1.09.14,2.09-.62,2.23-1.71.01-.1.02-.2.02-.3v-.41Zm9.07-3.01c-1.23-.03-2.25.93-2.28,2.16,0,.11,0,.22.02.33v4.43h-2.13v-8.8h1.79l.19,1.32c.45-.95,1.44-1.52,2.49-1.43.22,0,.44.02.66.05v2.03c-.24-.05-.48-.08-.73-.08m8.41,5.72c-.74.89-1.85,1.4-3.01,1.39-1.18,0-2.3-.5-3.07-1.39-.68-.93-1.02-2.07-.96-3.22-.05-1.15.29-2.28.96-3.22.77-.89,1.89-1.4,3.06-1.39,1.16-.02,2.27.49,3.01,1.39.41.56.65,1.22.68,1.91h-2.08c-.01-.29-.1-.57-.25-.81-.31-.44-.82-.69-1.35-.66-.49,0-.95.19-1.29.54-.46.65-.67,1.44-.59,2.23-.08.79.13,1.57.59,2.22.33.36.8.56,1.29.56.53.03,1.05-.22,1.35-.66.15-.24.24-.52.25-.81h2.08c-.03.69-.26,1.36-.68,1.91m9.98-2.54h-5.89c-.03.64.2,1.26.64,1.73.35.34.81.54,1.3.54.47.05.94-.1,1.29-.42.21-.2.35-.46.42-.74h2.03c-.1.6-.36,1.16-.74,1.62-.75.83-1.84,1.28-2.96,1.24-1.03.03-2.03-.36-2.77-1.08-.92-.94-1.41-2.21-1.35-3.52-.05-1.3.4-2.56,1.27-3.52.74-.74,1.76-1.15,2.81-1.12,1.28-.05,2.49.57,3.22,1.62.58.91.85,1.99.76,3.06,0,0-.02.41-.02.59m-2.64-3.08c-.35-.35-.84-.53-1.34-.51-.57-.02-1.12.23-1.47.68-.31.39-.47.87-.46,1.37h3.81c.02-.56-.18-1.11-.54-1.54m6.99,6.92c-1.17.16-2.24-.67-2.4-1.83-.02-.18-.02-.36,0-.53v-9.97h2.13v9.61c0,.51.12.85.85.85.19,0,.24-.02.36-.02v1.78c-.3.08-.62.12-.93.12m9.25-1.25c-.78.88-1.9,1.38-3.08,1.37-1.18.01-2.3-.49-3.08-1.37-.73-.92-1.1-2.08-1.03-3.25-.07-1.17.3-2.33,1.03-3.25.78-.88,1.9-1.38,3.08-1.37,1.18-.01,2.3.49,3.08,1.37.73.92,1.1,2.08,1.03,3.25.07,1.17-.3,2.33-1.03,3.25m-1.74-5.47c-.35-.36-.83-.56-1.34-.56-.5,0-.99.2-1.34.56-.47.64-.69,1.43-.63,2.22-.07.79.15,1.58.62,2.22.35.36.83.56,1.34.56.5,0,.99-.2,1.34-.56.47-.64.7-1.43.63-2.22.07-.79-.15-1.58-.62-2.22m10.19,6.62v-5.4c0-1.03-.34-1.66-1.45-1.66-.69.02-1.3.46-1.52,1.12-.25.76-.35,1.56-.29,2.35v3.59h-2.12v-8.8h1.78l.15,1.13c.56-.88,1.55-1.4,2.59-1.35,1.59-.06,2.93,1.18,2.99,2.77,0,.13,0,.25-.01.38v5.87h-2.12Zm11.23.13c-.75.06-1.42-.49-1.49-1.24-.61.87-1.61,1.37-2.67,1.32-2.1,0-3.18-1.32-3.18-2.76,0-1.67,1.3-2.64,2.98-2.76l2.59-.19v-.54c0-.83-.29-1.39-1.49-1.39-.98,0-1.56.44-1.61,1.25h-2.04c.12-1.98,1.69-2.86,3.66-2.86,1.5,0,2.79.47,3.3,1.79.19.57.28,1.17.25,1.78v3.27c0,.41.14.56.49.56.09,0,.18-.01.27-.03v1.56c-.32.17-.68.25-1.05.24m-1.78-4.04l-2.23.17c-.66-.02-1.22.49-1.27,1.15.03.64.57,1.13,1.21,1.1.01,0,.03,0,.04,0,1.09.14,2.09-.62,2.23-1.71.01-.1.02-.2.02-.3v-.41Zm-112.66,9.85l14.93-14.93-14.93-14.94-14.93,14.94,14.93,14.93Zm15.15-14.93s-1.67,3-6.83,8.16c-5.23,5.23-8.33,6.99-8.33,6.99,0,0-2.99-1.67-8.15-6.83-5.23-5.23-6.99-8.31-6.99-8.31,0,0,1.68-2.99,6.83-8.16,5.23-5.23,8.31-6.99,8.31-6.99,0,0,3,1.66,8.16,6.83,5.23,5.23,6.99,8.32,6.99,8.32m-15.15,14.93l14.93-14.93-14.93-14.94-14.93,14.94,14.93,14.93Zm15.15-14.93s-1.67,3-6.83,8.16c-5.23,5.23-8.33,6.99-8.33,6.99,0,0-2.99-1.67-8.15-6.83-5.23-5.23-6.99-8.31-6.99-8.31,0,0,1.68-2.99,6.83-8.16,5.23-5.23,8.31-6.99,8.31-6.99,0,0,3,1.66,8.16,6.83,5.23,5.23,6.99,8.32,6.99,8.32m-1.45-.21h-1.36v-1.37l1.36,1.37Zm-2.89-2.89v2.88h-1.51v-4.4l1.51,1.52Zm-3.02-3.02v5.91h-1.51v-7.43l1.51,1.52Zm-3.03-3.03v8.94h-1.51v-10.45l1.51,1.51Zm-3.03-3.03v11.97h-1.51v-13.48l1.51,1.51Zm-15.42,12.4h1.37v1.37l-1.37-1.37Zm2.89,2.88v-2.89h1.51v4.4l-1.51-1.51Zm3.02,3.03v-5.92h1.51v7.42l-1.51-1.51Zm3.03,3.03v-8.94h1.51v10.45l-1.51-1.51Zm3.02,3.02v-11.97h1.52v13.47l-1.52-1.51Zm1.95-11.96h3.03v3.76h-3.03v-3.76Zm3.03,10.45l-3.03,3.02v-8.2h3.03v5.18Zm-6.49-21.34l3.03-3.02v8.19h-3.03v-5.18Zm3.03,10.45h-3.03v-3.77h3.03v3.77Zm16.12.22c0-.34.27-.61.61-.61,0,0,0,0,0,0,.34,0,.62.27.62.61,0,.34-.28.61-.62.62-.34,0-.61-.28-.61-.62m-33.05,0c0-.34.27-.61.61-.61,0,0,0,0,0,0,.34,0,.62.27.62.6,0,0,0,0,0,0,0,.34-.28.62-.62.62-.34,0-.61-.28-.61-.62m16.53,16.52c0-.34.28-.61.61-.61.34,0,.61.27.61.61,0,0,0,0,0,0,0,.34-.27.61-.6.61,0,0,0,0-.01,0-.34,0-.61-.27-.61-.61,0,0,0,0,0,0m-3.18-38.25c-.18-.06-.38-.09-.57-.09-.85,0-1.53.52-1.53,1.14,0,.3.15.59.39.78l-.67.67c-.42-.36-.67-.89-.68-1.44.11-1.26,1.22-2.19,2.48-2.09.34,0,.68.06,1,.18.51-.56,1.24-.87,1.99-.85.48,0,.95.12,1.37.35.42-.23.89-.35,1.37-.35.76-.02,1.48.29,1.99.85.32-.12.66-.18,1.01-.18,1.26-.1,2.37.84,2.48,2.1-.01.56-.26,1.08-.68,1.44l-.67-.67c.24-.19.39-.47.4-.78,0-.62-.69-1.14-1.53-1.14-.19,0-.39.03-.57.09.03.13.04.26.04.39,0,.41-.14.81-.39,1.14l-.68-.69c.08-.14.12-.29.12-.45,0-.64-.68-1.15-1.52-1.15-.3,0-.6.07-.87.21v1.37h-.96v-1.35c-.28-.16-.59-.24-.91-.23-.84,0-1.52.51-1.52,1.15,0,.16.04.31.12.45l-.68.69c-.25-.33-.38-.73-.38-1.14,0-.13.01-.26.04-.39m-.85,5.02l.53.8c1.29-.6,2.69-.91,4.11-.93,1.43,0,2.83.32,4.13.93l.53-.8c-1.45-.69-3.03-1.04-4.64-1.03-1.61,0-3.2.34-4.66,1.03m4.01-8.02c0-.35.28-.64.63-.65,0,0,0,0,.01,0,.36,0,.64.29.64.65,0,.35-.29.64-.64.64-.35,0-.64-.28-.64-.63,0,0,0,0,0,0m-4,7.24c-.25-.04-.47-.22-.56-.46.14-.22.38-.34.64-.33.25.05.47.22.56.46-.14.21-.39.34-.64.33m-.45-1.17c-.12-.23-.35-.38-.61-.39-.16.2-.2.47-.11.71.12.23.35.37.6.39.16-.2.21-.47.12-.71m2.87.47c-.24-.09-.42-.31-.46-.56.19-.18.45-.25.7-.19.24.1.41.31.45.57-.18.18-.44.25-.69.19m-.64.14c.18-.19.25-.45.18-.7-.24-.09-.51-.05-.71.11-.18.18-.25.45-.18.7.24.09.51.05.71-.11m.44-1.37c-.06-.25-.25-.44-.5-.51-.2.16-.3.42-.26.67.07.25.26.44.51.51.2-.16.29-.42.26-.67m7.02,1.94c.25-.04.47-.22.56-.46-.14-.22-.39-.34-.65-.33-.25.05-.46.22-.55.46.14.21.38.34.64.33m.44-1.17c.12-.22.35-.37.6-.39.16.2.21.47.12.71-.12.22-.35.37-.6.39-.16-.2-.21-.47-.12-.71m-2.87.47c.24-.09.42-.31.46-.56-.18-.18-.44-.25-.69-.19-.24.09-.42.31-.46.57.19.18.45.25.69.19m.64.14c-.18-.19-.25-.45-.19-.7.24-.09.51-.05.71.11.18.19.25.45.18.7-.24.09-.51.05-.71-.11m-.44-1.37c.07-.25.26-.44.51-.51.19.17.28.42.25.67-.07.25-.26.44-.51.51-.2-.16-.29-.42-.25-.67m-2.7,1.03c.22-.14.34-.38.33-.64-.22-.14-.49-.15-.72-.04-.21.14-.34.39-.33.64.22.14.49.15.72.03m.66,0c-.21-.14-.34-.38-.33-.64.21-.14.49-.15.72-.04.22.14.34.38.33.64-.22.14-.49.15-.72.03m-.72-1.24c.01-.26.16-.49.39-.61.23.12.38.35.39.6-.02.25-.17.48-.39.6-.23-.12-.37-.35-.39-.6m5.14,28.78h0v-3.66h3.65l-3.65,3.66Zm-13.17-14.65l3.65-3.66v3.66h-3.65Zm22.1,5.71l-3.76,3.76h-5.17v-3.77h8.93Zm-18.45-4.2v3.76h-8.93l3.77-3.77h5.16Z"/>
    </g>
  </g>
</svg>